<svg xmlns="http://www.w3.org/2000/svg" id="Camada_1" data-name="Camada 1" viewBox="0 0 605.42 110.451">
  <defs>
    <style>
      .cls-1 {
        fill: #fff;
      }

      .cls-2 {
        fill: #38384d;
      }
    </style>
  </defs>
  <polygon class="cls-1" points="43.11 62.001 19.46 20.111 0 20.111 0 97.801 15.61 97.801 15.61 42.971 38.59 83.841 47.52 83.841 70.5 42.971 70.5 97.801 86.11 97.801 86.11 20.111 66.87 20.111 43.11 62.001"/>
  <path class="cls-1" d="M134.73,18.761c-23.53,0-41.18,17.34-41.18,40.2s17.65,40.2,41.18,40.2,41.19-17.34,41.19-40.2-17.76-40.2-41.19-40.2h0ZM134.73,84.181c-14.37,0-25.23-10.81-25.23-25.22s10.86-25.22,25.23-25.22,25.12,10.81,25.12,25.22-10.86,25.22-25.12,25.22Z"/>
  <path class="cls-1" d="M366.95,20.111h-30.55v16.15c-3.92,1.63-13.82,5.85-14.52,6.07-1.24.4-2.5.81-3.79,1.24-3.68-15.48-10.34-33.68-22.06-41.4l-1.13-.62c-14.32-6.32-24.87,8.26-29.95,15.26l-.44.61c-12.6,18.19-19.7,39.81-21.6,65.75h-.05c-4.87,0-8.83-2.03-11.77-6.19l-5.43-7.77c11.09-2.82,18.78-11.94,18.78-23.65,0-14.52-11.43-25.45-26.48-25.45h-34.74v77.69h15.61v-27.7h8.71l8.94,14.19c5.09,9.12,13.24,13.51,24.67,13.51h4.87v-.03h0c6.27,0,11.67-5.13,12.05-11.39,1.47-24.11,7.74-43.9,18.99-60.14l.35-.48c2.38-3.28,7.94-10.73,10.8-10.34,6.11,4.66,11.75,17.23,15.38,33.41-16.5,6.88-31.58,17.39-30.2,37.6.48,8,3.99,15.39,9.41,19.76,3.47,2.81,7.52,4.26,11.97,4.26,1.05,0,2.13-.08,3.22-.24,18.54-3.38,26.17-24.02,24.14-42.59-.17-1.73-.52-4.86-1.13-8.87,1.82-.62,3.7-1.24,5.62-1.86,1.64-.53,5.5-2.04,9.74-3.72v44.63h30.55c22.74,0,39.83-16.67,39.83-38.84s-17.09-38.84-39.83-38.84l.04-.01ZM217.64,56.591h-18.78v-21.84h18.78c6.11,0,10.75,4.73,10.75,10.92s-4.64,10.92-10.75,10.92ZM295.5,95.111c-1.18.18-2.06-.07-2.98-.81-2-1.61-3.54-5.22-3.75-8.84-.67-9.81,6.19-15.92,17.55-21.09.2,1.59.38,3.2.54,4.83.99,9.04-1.29,24.07-11.36,25.91h0ZM366.61,83.161h-14.6v-48.41h14.6c13.8,0,24.1,10.36,24.1,24.2s-10.3,24.2-24.1,24.2v.01Z"/>
  <g>
    <circle class="cls-2" cx="550.92" cy="54.821" r="54.5"/>
    <g>
      <path class="cls-1" d="M537.33,32.241h10.19l16.57,42.96h-9.44l-3.06-8.34h-18.58l-3,8.34h-9.32l16.64-42.96ZM548.65,58.951l-6.32-17.25-6.38,17.25h12.7Z"/>
      <path class="cls-1" d="M568.55,32.241h8.63v42.96h-8.63v-42.96Z"/>
    </g>
  </g>
  <path class="cls-1" d="M451,20.111h-18.45l-30.1,77.69h16.86l5.43-15.09h33.6l5.54,15.09h17.09l-29.99-77.69h.02ZM430.07,68.411l11.54-31.19,11.43,31.19h-22.97Z"/>
</svg>